<?xml version="1.0" encoding="iso-8859-1"?>
<!-- Generator: Adobe Illustrator 19.2.1, SVG Export Plug-In . SVG Version: 6.00 Build 0)  -->
<svg version="1.1" id="Capa_1" xmlns="http://www.w3.org/2000/svg" xmlns:xlink="http://www.w3.org/1999/xlink" x="0px" y="0px"
	 width="121.313px" height="25.488px" viewBox="0 0 121.313 25.488" style="enable-background:new 0 0 121.313 25.488;"
	 xml:space="preserve">
<g>
	<g>
		<path style="fill:#58595B;" d="M80.552,2.33C78.643,0.912,76.34,0,73.046,0c-4.878,0-8.763,2.68-10.739,6.622V0.422h-4.143v14.185
			c0,4.543-2.258,6.867-5.932,6.867c-3.711,0-5.967-2.466-5.967-7.041V0.422h-4.144v3.197c-1.457-2.037-4.022-3.197-7.4-3.197
			h-9.927V0.409H7.635v24.657h4.148v-7.239c0.011-0.027,0.025-0.052,0.025-0.096c0-0.977,0.714-1.771,1.627-1.859h7.009v-3.942
			h-8.661V4.35h12.425v20.714h4.142v-6.666c0.014-0.029,0.027-0.055,0.027-0.104c0-0.884,0.59-1.621,1.38-1.819h3.784l2.304,3.415
			l3.295,5.141h4.884l-6.17-9.298c1.775-0.509,3.264-1.462,4.266-2.866v1.738c0,7.149,3.907,10.844,10.044,10.844
			c5.042,0,8.617-2.474,9.754-7.398c1.824,4.414,5.916,7.434,10.961,7.434c4.413,0,7.112-1.689,9.572-4.365l-2.665-2.817
			c-2.023,1.973-3.873,3.206-6.773,3.206c-4.517,0-7.785-3.946-7.785-8.803c0-4.858,3.269-8.732,7.785-8.732
			c2.697,0,4.719,1.234,6.607,3.065l2.164-2.606h5.779v20.629h4.182V6.149c0.083-0.959,0.844-1.713,1.783-1.713h4.74V0.422H80.552
			V2.33z M34.416,12.639H28.35V4.364h6.034c3.066,0,4.886,1.41,4.886,4.123C39.27,11.019,37.382,12.639,34.416,12.639z"/>
		<rect x="99.291" y="0.422" style="fill:#58595B;" width="4.145" height="24.642"/>
		<path style="fill:#58595B;" d="M113.729,10.772c-4.512-1.124-5.592-1.97-5.592-3.908c0-1.653,1.413-2.957,3.841-2.957
			c2.107,0,4.186,0.848,6.263,2.434V1.569c-1.814-0.973-3.834-1.498-6.198-1.498c-4.683,0-8.055,2.885-8.055,7.181
			c0,4.575,2.835,6.123,7.854,7.395c4.384,1.055,5.327,2.004,5.327,3.799c0,1.903-1.621,3.136-4.179,3.136
			c-2.872,0-5.091-1.118-7.297-3.075v4.938c2.214,1.31,4.651,1.971,7.194,1.971c4.95,0,8.424-2.745,8.424-7.394
			C121.313,13.906,118.721,12.041,113.729,10.772z"/>
	</g>
	<g>
		<path style="fill:#58595B;" d="M0.155,21.579v-1.14h5.848v1.222l-4.17,2.386v0.016h4.17v1.14H0.155v-1.287l4.072-2.321v-0.016
			H0.155z"/>
		<path style="fill:#58595B;" d="M3.958,15.222c1.539,0,2.199,0.928,2.199,2.403c0,0.537-0.13,1.336-0.708,1.857
			c-0.358,0.318-0.831,0.44-1.417,0.456H0.155v-1.246H3.95c0.814,0,1.173-0.472,1.173-1.042c0-0.839-0.407-1.181-1.116-1.181H0.155
			v-1.246H3.958z"/>
		<path style="fill:#58595B;" d="M1.189,10.393v3.103h1.23v-2.851h1.034v2.851h1.515v-3.242h1.034v4.439H0.155v-4.3H1.189z"/>
		<path style="fill:#58595B;" d="M0.155,6.519V5.249l5.848,1.987v1.165l-5.848,1.971V9.06l4.43-1.254V7.79L0.155,6.519z"/>
		<path style="fill:#58595B;" d="M0,2.852c0-0.774,0.334-2.81,3.079-2.81c2.745,0,3.078,2.036,3.078,2.81
			c0,0.774-0.334,2.81-3.078,2.81C0.334,5.662,0,3.625,0,2.852z M5.123,2.852c0-0.66-0.407-1.588-2.044-1.588
			S1.034,2.192,1.034,2.852c0,0.66,0.407,1.588,2.044,1.588S5.123,3.511,5.123,2.852z"/>
	</g>
</g>
</svg>
